name processed_emg_signals
nRows=33
nColumns=7
 
endheader
time	RGLTMED	RRF	RADDLONG	RST	RTA	RGM
1.16	0.0218532357816217	0.0438743999023792	0.0860595694493219	0.1205226936937084	0.9948309405332604	0.0672626240568783
1.161	0.0219808626155659	0.0431854074273546	0.0859882344497889	0.1205079923124411	0.9961058282729504	0.0672332713351827
1.162	0.0221079988285888	0.0425443776694692	0.0859138444757974	0.1204533045960173	0.9972024793741654	0.0671990446073286
1.163	0.0222346444047182	0.0419516164874373	0.0858361826504106	0.1203583885704115	0.9981200151187686	0.0671600318733922
1.164	0.0223608035331894	0.0414073913631327	0.08575503631599	0.1202230459059712	0.9988576976048952	0.0671163278178753
1.165	0.022486484354566	0.0409119314549887	0.0856701978749585	0.1200471224692163	0.9994149286408114	0.0670680337038756
1.166	0.0226116987042647	0.0404654277080047	0.0855814656133572	0.1198305088155809	0.9997912485035518	0.0670152572538732
1.167	0.0227364618542172	0.0400680330193244	0.085488644503406	0.1195731406200683	0.9999863345915484	0.0669581125178229
1.168	0.022860792253378	0.0397198624582865	0.0853915469811342	0.1192749990427829	1.0	0.0668967197292195
1.169	0.0229847112677569	0.0394209935398692	0.0852899936950905	0.1189361110263131	0.9998321920465398	0.0668312051499117
1.17	0.0231082429206038	0.0391714665504142	0.0851838142220608	0.1185565495220754	0.9994829907727284	0.0667617009044453
1.171	0.023231413633412	0.0389712849245846	0.0850728477458545	0.1181364336428817	0.9989526074445872	0.0666883448047648
1.172	0.0233542519683724	0.0388204156724794	0.0849569436955219	0.1176759287390873	0.9982413830729606	0.0666112801661003
1.173	0.0234767883729623	0.0387187898558042	0.0848359623396953	0.1171752463958099	0.9973497869724652	0.066530655614836
1.174	0.0235990549272884	0.0386663031119989	0.0847097753342024	0.1166346443488993	0.9962784153760348	0.0664466248892038
1.175	0.0237210850947938	0.0386628162251223	0.0845782662204044	0.1160544263175898	0.9950279901205996	0.0663593466335577
1.176	0.0238429134768929	0.0387081557422774	0.0844413308722325	0.1154349417521695	0.9935993574179598	0.0662689841869684
1.177	0.0239645755720408	0.0388021146342585	0.0842988778903948	0.1147765854954635	0.991993486723156	0.0661757053668016
1.178	0.024086107539732	0.0389444529990251	0.0841508289428163	0.1140797973575103	0.9902114697108514	0.0660796822479629
1.179	0.0242075459698685	0.0391348988065163	0.0839971190509217	0.1133450616035037	0.9882545193682007	0.0659810909384059
1.18	0.0243289276579159	0.0393731486832161	0.0838376968220184	0.1125729063556835	0.9861239692104714	0.0658801113514458
1.181	0.0244502893862204	0.0396588687348283	0.0836725246286074	0.1117639029105478	0.9838212726232208	0.0657769269752151
1.182	0.024571667711798	0.0399916954053328	0.0835015787359887	0.1109186649733055	0.9813480023323622	0.0656717246394281
1.183	0.0246930987608677	0.0403712363706458	0.0833248493798635	0.1100378478119401	0.9787058500008684	0.0655646942793944
1.184	0.0248146180303739	0.0407970714651126	0.0831423407959874	0.109122147333546	0.9758966259483296	0.0654560286970784
1.185	0.0249362601967366	0.0412687536390117	0.0829540712041518	0.1081722990856813	0.9729222589872694	0.0653459233188371
1.186	0.0250580589320698	0.0417858099452822	0.0827600727489527	0.107189077185521	0.9697847963678368	0.0652345759493557
1.187	0.0251800467281277	0.0423477425536308	0.0825603913998868	0.1061732931794457	0.9664864038203382	0.0651221865212041
1.188	0.0253022547282125	0.0429540297901434	0.0823550868132836	0.1051257948356265	0.9630293656828004	0.065008956839333
1.189	0.025424712567228	0.0436041272004275	0.0821442321586508	0.104047464872007	0.9594160850990028	0.0648950903198406
1.19	0.0255474482200476	0.0442974686342853	0.0819279139119904	0.1029392196220858	0.955649084271076	0.0647807917223767
1.191	0.0256704878582617	0.0450334673498624	0.0817062316186688	0.1018020076408847	0.9517310047496168	0.0646662668756535
1.192	0.0257938557153461	0.0458115171351682	0.0814792976284398	0.1006368082535933	0.9476646077430104	0.0645517223957253
